<mxfile host="app.diagrams.net" modified="2023-12-10T21:36:11.198Z" agent="Mozilla/5.0 (Windows NT 10.0; Win64; x64; rv:120.0) Gecko/20100101 Firefox/120.0" etag="MZ9k-MuFVLV_dZgIfEES" version="22.1.5" type="device">
  <diagram name="Page-1" id="ywVeZGeZeBYtoBsptHhb">
    <mxGraphModel dx="1050" dy="1638" grid="1" gridSize="10" guides="1" tooltips="1" connect="1" arrows="1" fold="1" page="1" pageScale="1" pageWidth="850" pageHeight="1100" math="0" shadow="0">
      <root>
        <mxCell id="0" />
        <mxCell id="1" parent="0" />
        <mxCell id="pMltG-h7KN26vVkOFSgh-1" value="&lt;div&gt;Login&lt;/div&gt;&lt;div&gt;wybor DB&lt;/div&gt;" style="whiteSpace=wrap;html=1;aspect=fixed;" parent="1" vertex="1">
          <mxGeometry x="80" y="240" width="80" height="80" as="geometry" />
        </mxCell>
        <mxCell id="pMltG-h7KN26vVkOFSgh-2" value="dobre pasy" style="shape=flexArrow;endArrow=classic;html=1;rounded=0;" parent="1" edge="1">
          <mxGeometry width="50" height="50" relative="1" as="geometry">
            <mxPoint x="160" y="240" as="sourcePoint" />
            <mxPoint x="210" y="190" as="targetPoint" />
          </mxGeometry>
        </mxCell>
        <mxCell id="pMltG-h7KN26vVkOFSgh-3" value="zle pasy" style="shape=flexArrow;endArrow=classic;html=1;rounded=0;" parent="1" edge="1">
          <mxGeometry width="50" height="50" relative="1" as="geometry">
            <mxPoint x="160" y="320" as="sourcePoint" />
            <mxPoint x="210" y="370" as="targetPoint" />
          </mxGeometry>
        </mxCell>
        <mxCell id="pMltG-h7KN26vVkOFSgh-4" value="&lt;div&gt;error&lt;/div&gt;&lt;div&gt;bad login/password&lt;br&gt;&lt;/div&gt;" style="whiteSpace=wrap;html=1;aspect=fixed;" parent="1" vertex="1">
          <mxGeometry x="210" y="370" width="80" height="80" as="geometry" />
        </mxCell>
        <mxCell id="pMltG-h7KN26vVkOFSgh-5" value="&lt;div&gt;main&lt;/div&gt;&lt;div&gt;menu&lt;br&gt;&lt;/div&gt;" style="whiteSpace=wrap;html=1;aspect=fixed;" parent="1" vertex="1">
          <mxGeometry x="210" y="110" width="80" height="80" as="geometry" />
        </mxCell>
        <mxCell id="pMltG-h7KN26vVkOFSgh-6" value="&lt;div&gt;albumy&lt;/div&gt;" style="whiteSpace=wrap;html=1;aspect=fixed;" parent="1" vertex="1">
          <mxGeometry x="370" y="30" width="80" height="80" as="geometry" />
        </mxCell>
        <mxCell id="pMltG-h7KN26vVkOFSgh-7" value="&lt;div&gt;uzytkownicy&lt;/div&gt;" style="whiteSpace=wrap;html=1;aspect=fixed;" parent="1" vertex="1">
          <mxGeometry x="450" y="110" width="80" height="80" as="geometry" />
        </mxCell>
        <mxCell id="pMltG-h7KN26vVkOFSgh-8" value="ustawienia" style="whiteSpace=wrap;html=1;aspect=fixed;" parent="1" vertex="1">
          <mxGeometry x="370" y="190" width="80" height="80" as="geometry" />
        </mxCell>
        <mxCell id="pMltG-h7KN26vVkOFSgh-9" value="" style="shape=flexArrow;endArrow=classic;html=1;rounded=0;entryX=0;entryY=0.5;entryDx=0;entryDy=0;" parent="1" target="pMltG-h7KN26vVkOFSgh-6" edge="1">
          <mxGeometry width="50" height="50" relative="1" as="geometry">
            <mxPoint x="290" y="110" as="sourcePoint" />
            <mxPoint x="340" y="60" as="targetPoint" />
          </mxGeometry>
        </mxCell>
        <mxCell id="pMltG-h7KN26vVkOFSgh-10" value="jesli ma uprawnienia" style="shape=flexArrow;endArrow=classic;html=1;rounded=0;entryX=0;entryY=0.5;entryDx=0;entryDy=0;exitX=1;exitY=0.5;exitDx=0;exitDy=0;" parent="1" source="pMltG-h7KN26vVkOFSgh-5" target="pMltG-h7KN26vVkOFSgh-7" edge="1">
          <mxGeometry width="50" height="50" relative="1" as="geometry">
            <mxPoint x="290" y="160" as="sourcePoint" />
            <mxPoint x="340" y="110" as="targetPoint" />
          </mxGeometry>
        </mxCell>
        <mxCell id="pMltG-h7KN26vVkOFSgh-11" value="" style="shape=flexArrow;endArrow=classic;html=1;rounded=0;entryX=0;entryY=0.5;entryDx=0;entryDy=0;" parent="1" target="pMltG-h7KN26vVkOFSgh-8" edge="1">
          <mxGeometry width="50" height="50" relative="1" as="geometry">
            <mxPoint x="290" y="190" as="sourcePoint" />
            <mxPoint x="340" y="140" as="targetPoint" />
          </mxGeometry>
        </mxCell>
        <mxCell id="pMltG-h7KN26vVkOFSgh-12" value="piosenka" style="whiteSpace=wrap;html=1;aspect=fixed;" parent="1" vertex="1">
          <mxGeometry x="450" y="-120" width="80" height="80" as="geometry" />
        </mxCell>
        <mxCell id="pMltG-h7KN26vVkOFSgh-13" value="\" style="shape=flexArrow;endArrow=classic;html=1;rounded=0;entryX=0.5;entryY=1;entryDx=0;entryDy=0;" parent="1" target="pMltG-h7KN26vVkOFSgh-12" edge="1">
          <mxGeometry width="50" height="50" relative="1" as="geometry">
            <mxPoint x="450" y="30" as="sourcePoint" />
            <mxPoint x="500" y="-20" as="targetPoint" />
          </mxGeometry>
        </mxCell>
        <mxCell id="pMltG-h7KN26vVkOFSgh-14" value="tworca" style="whiteSpace=wrap;html=1;aspect=fixed;" parent="1" vertex="1">
          <mxGeometry x="570" y="-120" width="80" height="80" as="geometry" />
        </mxCell>
        <mxCell id="pMltG-h7KN26vVkOFSgh-15" value="" style="shape=flexArrow;endArrow=classic;html=1;rounded=0;exitX=1;exitY=0.5;exitDx=0;exitDy=0;entryX=0.5;entryY=1;entryDx=0;entryDy=0;" parent="1" source="pMltG-h7KN26vVkOFSgh-6" target="pMltG-h7KN26vVkOFSgh-14" edge="1">
          <mxGeometry width="50" height="50" relative="1" as="geometry">
            <mxPoint x="500" y="40" as="sourcePoint" />
            <mxPoint x="550" y="-10" as="targetPoint" />
          </mxGeometry>
        </mxCell>
        <mxCell id="pMltG-h7KN26vVkOFSgh-16" value="" style="shape=flexArrow;endArrow=classic;html=1;rounded=0;entryX=0;entryY=0.5;entryDx=0;entryDy=0;" parent="1" target="pMltG-h7KN26vVkOFSgh-14" edge="1">
          <mxGeometry width="50" height="50" relative="1" as="geometry">
            <mxPoint x="530" y="-80" as="sourcePoint" />
            <mxPoint x="580" y="-130" as="targetPoint" />
          </mxGeometry>
        </mxCell>
        <mxCell id="pMltG-h7KN26vVkOFSgh-17" value="&lt;div&gt;powrot do loginu&lt;/div&gt;" style="shape=flexArrow;endArrow=classic;html=1;rounded=0;entryX=0.5;entryY=1;entryDx=0;entryDy=0;" parent="1" target="pMltG-h7KN26vVkOFSgh-1" edge="1">
          <mxGeometry width="50" height="50" relative="1" as="geometry">
            <mxPoint x="210" y="450" as="sourcePoint" />
            <mxPoint x="260" y="400" as="targetPoint" />
          </mxGeometry>
        </mxCell>
        <mxCell id="Z-ANC_Tcwut9mIytK5vz-1" value="&lt;div&gt;DataBaseConnect&lt;/div&gt;" style="whiteSpace=wrap;html=1;aspect=fixed;" vertex="1" parent="1">
          <mxGeometry x="640" y="360" width="80" height="80" as="geometry" />
        </mxCell>
        <mxCell id="Z-ANC_Tcwut9mIytK5vz-4" value="Metoda zwracajaca Connection" style="shape=flexArrow;endArrow=classic;html=1;rounded=0;exitX=0;exitY=1;exitDx=0;exitDy=0;" edge="1" parent="1">
          <mxGeometry width="50" height="50" relative="1" as="geometry">
            <mxPoint x="680" y="440" as="sourcePoint" />
            <mxPoint x="680" y="520" as="targetPoint" />
          </mxGeometry>
        </mxCell>
        <mxCell id="Z-ANC_Tcwut9mIytK5vz-6" value="Connection object" style="rounded=0;whiteSpace=wrap;html=1;" vertex="1" parent="1">
          <mxGeometry x="620" y="520" width="120" height="60" as="geometry" />
        </mxCell>
        <mxCell id="Z-ANC_Tcwut9mIytK5vz-7" value="Klasa z metodami, metody zwracaja JArray" style="whiteSpace=wrap;html=1;aspect=fixed;" vertex="1" parent="1">
          <mxGeometry x="400" y="600" width="80" height="80" as="geometry" />
        </mxCell>
        <mxCell id="Z-ANC_Tcwut9mIytK5vz-8" value="&lt;div&gt;Konstruktor&lt;/div&gt;" style="rounded=0;whiteSpace=wrap;html=1;" vertex="1" parent="1">
          <mxGeometry x="380" y="680" width="120" height="60" as="geometry" />
        </mxCell>
        <mxCell id="Z-ANC_Tcwut9mIytK5vz-9" value="Parametr" style="shape=flexArrow;endArrow=classic;html=1;rounded=0;entryX=1;entryY=0;entryDx=0;entryDy=0;exitX=0;exitY=1;exitDx=0;exitDy=0;" edge="1" parent="1" source="Z-ANC_Tcwut9mIytK5vz-6" target="Z-ANC_Tcwut9mIytK5vz-8">
          <mxGeometry width="50" height="50" relative="1" as="geometry">
            <mxPoint x="590" y="660" as="sourcePoint" />
            <mxPoint x="640" y="610" as="targetPoint" />
          </mxGeometry>
        </mxCell>
        <mxCell id="Z-ANC_Tcwut9mIytK5vz-13" value="&lt;div&gt;Bazowa klasa z interfejsami&lt;/div&gt;" style="rounded=0;whiteSpace=wrap;html=1;" vertex="1" parent="1">
          <mxGeometry x="380" y="540" width="120" height="60" as="geometry" />
        </mxCell>
        <mxCell id="Z-ANC_Tcwut9mIytK5vz-15" value="&lt;div&gt;np.&lt;/div&gt;&lt;div&gt;MySqlConnection = DataBaseConnect.ConnectMysql()&lt;br&gt;&lt;/div&gt;&lt;div&gt;V&lt;br&gt;&lt;/div&gt;&lt;div&gt;dataBase = new MySqlDB(MySqlConnection)&lt;/div&gt;&lt;div&gt;V&lt;/div&gt;&lt;div&gt;parametr1 = cos&lt;/div&gt;&lt;div&gt;parametr2 = cos&lt;br&gt;&lt;/div&gt;&lt;div&gt;JArray songs = dataBase.GetSongs(parametr1?, parametr2?)&lt;br&gt;&lt;/div&gt;" style="rounded=0;whiteSpace=wrap;html=1;" vertex="1" parent="1">
          <mxGeometry x="360" y="759" width="480" height="250" as="geometry" />
        </mxCell>
      </root>
    </mxGraphModel>
  </diagram>
</mxfile>
